#!OML:ASF H:\BabyWalks\Project 1\Capture day 1\Session 1\baby.ASF
:FULLY-SPECIFIED
:DEGREES
379
root -14.244 15.9622 -2.22547 108.256 -85.1306 -126.627
lowerback 13.4376 0.113244 0.858964
upperback 3.421 0.146059 0.628511
thorax -3.92995 0.0023418 0.15229
lowerneck -7.14922 -0.202443 5.03578
upperneck 6.39495 -0.451194 -4.50193
head 3.34737 -0.281835 -2.42153
rclavicle -2.13694e-015 -2.78299e-015
rhumerus 21.2412 -4.33487 -65.6255
rradius 67.6576
rwrist 20.8208
rhand 23.1272 -24.1465
rfingers 7.12502
rthumb 47.4364 -46.618
lclavicle -2.13694e-015 -2.78299e-015
lhumerus 21.5452 -0.551531 60.9728
lradius 73.5962
lwrist -6.11607
lhand 26.2478 33.5334
lfingers 7.12502
lthumb 50.3042 54.5949
rfemur 2.41196 -11.7334 11.4245
rtibia 54.2107
rfoot -31.8906 -9.87957
rtoes -12.8884
lfemur 1.45978 12.1449 1.43265
ltibia 53.2801
lfoot -35.8742 -8.41245
ltoes -12.6244
380
root -14.2426 15.9611 -2.22513 108.139 -85.0282 -126.537
lowerback 13.488 0.104416 0.96877
upperback 3.42544 0.149797 0.646006
thorax -3.95233 0.00296748 0.108011
lowerneck -7.20642 -0.201928 5.01169
upperneck 6.42453 -0.451183 -4.48487
head 3.36844 -0.282159 -2.41261
rclavicle 9.93923e-016 -1.23246e-014
rhumerus 21.2394 -4.28978 -65.6248
rradius 67.6545
rwrist 20.8209
rhand 23.1939 -24.1821
rfingers 7.12502
rthumb 47.4979 -46.6258
lclavicle 9.93923e-016 -1.23246e-014
lhumerus 21.506 -0.579187 60.9498
lradius 73.6127
lwrist -6.15064
lhand 26.2303 33.4984
lfingers 7.12502
lthumb 50.2882 54.5684
rfemur 2.4206 -11.652 11.567
rtibia 54.2164
rfoot -31.8984 -9.95621
rtoes -12.9113
lfemur 1.47154 12.1503 1.55752
ltibia 53.3212
lfoot -35.869 -8.43931
ltoes -12.5056
381
root -14.2413 15.9601 -2.22429 108.199 -84.9983 -126.602
lowerback 13.5018 0.0976564 1.01568
upperback 3.43605 0.146541 0.644385
thorax -3.94854 0.000761991 0.0803807
lowerneck -7.15892 -0.209468 5.07039
upperneck 6.31906 -0.459838 -4.58313
head 3.32334 -0.288796 -2.45498
rclavicle -4.47266e-016 5.1684e-015
rhumerus 21.2659 -4.27235 -65.6506
rradius 67.6402
rwrist 20.8233
rhand 23.2035 -24.1393
rfingers 7.12502
rthumb 47.5068 -46.579
lclavicle -4.47266e-016 5.1684e-015
lhumerus 21.4994 -0.580105 60.9572
lradius 73.6197
lwrist -6.22337
lhand 26.2801 33.486
lfingers 7.12502
lthumb 50.3337 54.5318
rfemur 2.40655 -11.598 11.6155
rtibia 54.2298
rfoot -31.8933 -9.99806
rtoes -12.9435
lfemur 1.46364 12.154 1.58278
ltibia 53.3553
lfoot -35.9021 -8.41608
ltoes -12.6488
382
root -14.2392 15.9565 -2.22301 108.438 -84.9796 -126.841
lowerback 13.4974 0.0948361 1.03823
upperback 3.45282 0.144995 0.649147
thorax -3.92844 -0.000405376 0.0728825
lowerneck -7.20169 -0.193629 5.0002
upperneck 6.32083 -0.435689 -4.54903
head 3.33286 -0.277617 -2.42973
rclavicle 5.71506e-016 -1.59028e-015
rhumerus 21.3073 -4.23861 -65.647
rradius 67.6306
rwrist 20.7949
rhand 23.2175 -24.1675
rfingers 7.12502
rthumb 47.5197 -46.6013
lclavicle 5.71506e-016 -1.59028e-015
lhumerus 21.4662 -0.58183 60.9547
lradius 73.6337
lwrist -6.21652
lhand 26.2217 33.5157
lfingers 7.12502
lthumb 50.2804 54.59
rfemur 2.37319 -11.6104 11.6056
rtibia 54.248
rfoot -31.8723 -9.98206
rtoes -12.9682
lfemur 1.43991 12.1536 1.58323
ltibia 53.3972
lfoot -35.9031 -8.42003
ltoes -12.5394
383
root -14.2373 15.9563 -2.2221 108.753 -84.9176 -127.146
lowerback 13.5104 0.0912672 1.1054
upperback 3.44345 0.150044 0.652521
thorax -3.94505 0.00162101 0.0376684
lowerneck -7.17633 -0.191028 4.98327
upperneck 6.26399 -0.430202 -4.55211
head 3.30848 -0.275364 -2.42593
rclavicle 7.62836e-015 -2.46493e-014
rhumerus 21.3119 -4.19064 -65.6661
rradius 67.622
rwrist 20.7732
rhand 23.2079 -24.1739
rfingers 7.12502
rthumb 47.5109 -46.6117
lclavicle 7.62836e-015 -2.46493e-014
lhumerus 21.4242 -0.587017 60.9378
lradius 73.642
lwrist -6.19626
lhand 26.1997 33.527
lfingers 7.12502
lthumb 50.2603 54.612
rfemur 2.32619 -11.5107 11.6999
rtibia 54.2598
rfoot -31.8874 -10.0194
rtoes -12.9471
lfemur 1.42968 12.1759 1.6284
ltibia 53.418
lfoot -35.8957 -8.41242
ltoes -12.4778
384
root -14.2368 15.9565 -2.22092 109.05 -84.9082 -127.449
lowerback 13.5136 0.0930585 1.12474
upperback 3.45743 0.153976 0.647386
thorax -3.93198 0.00321169 0.0207279
lowerneck -7.31312 -0.217584 4.95926
upperneck 6.34526 -0.468041 -4.54466
head 3.36084 -0.295438 -2.42432
rclavicle 6.95746e-016 -1.86858e-014
rhumerus 21.3461 -4.1885 -65.6801
rradius 67.5998
rwrist 20.7772
rhand 23.2504 -24.1386
rfingers 7.12502
rthumb 47.5501 -46.5586
lclavicle 6.95746e-016 -1.86858e-014
lhumerus 21.4058 -0.594866 60.9404
lradius 73.64
lwrist -6.18993
lhand 26.1761 33.5339
lfingers 7.12502
lthumb 50.2387 54.6303
rfemur 2.3142 -11.4426 11.7193
rtibia 54.271
rfoot -31.8745 -10.0711
rtoes -12.9922
lfemur 1.44151 12.1746 1.61383
ltibia 53.429
lfoot -35.91 -8.34332
ltoes -12.597
